<svg width="1008" height="867" viewBox="0 0 1008 867" fill="none" xmlns="http://www.w3.org/2000/svg">
<path d="M333.024 451.291C459.772 557.023 586.52 15.0881 728.497 0.334852C870.474 -14.4184 1080.25 462.603 1029.15 587.513C978.061 712.424 700.003 947 579.151 947C458.298 947 11.8847 845.41 0.434979 727.669C-11.0147 609.928 206.277 345.56 333.024 451.291Z" fill="#F6C24E"/>
<path d="M386.182 503.137C491.296 590.558 596.41 142.475 714.154 130.277C831.897 118.079 1005.86 512.49 963.493 615.769C921.121 719.047 690.523 913 590.299 913C490.074 913 119.856 829.003 110.361 731.652C100.865 634.302 281.069 415.716 386.182 503.137Z" fill="#BD3381" fill-opacity="0.8"/>
</svg>
